<?xml version="1.0" encoding="UTF-8"?>
<svg width="210mm" height="148mm" version="1.1" viewBox="0 0 210 148" xmlns="http://www.w3.org/2000/svg" xmlns:cc="http://creativecommons.org/ns#" xmlns:dc="http://purl.org/dc/elements/1.1/" xmlns:rdf="http://www.w3.org/1999/02/22-rdf-syntax-ns#">
 <defs>
  <marker id="marker1577" overflow="visible" orient="auto">
   <path transform="matrix(.8 0 0 .8 10 0)" d="m0 0 5-5-17.5 5 17.5 5z" fill="#8d8282" fill-rule="evenodd" stroke="#8d8282" stroke-width="1pt"/>
  </marker>
  <marker id="Arrow1Lstart" overflow="visible" orient="auto">
   <path transform="matrix(.8 0 0 .8 10 0)" d="m0 0 5-5-17.5 5 17.5 5z" fill="#877" fill-rule="evenodd" stroke="#877" stroke-width="1pt"/>
  </marker>
 </defs>
 <metadata>
  <rdf:RDF>
   <cc:Work rdf:about="">
    <dc:format>image/svg+xml</dc:format>
    <dc:type rdf:resource="http://purl.org/dc/dcmitype/StillImage"/>
    <dc:title/>
   </cc:Work>
  </rdf:RDF>
 </metadata>
 <path d="m37.369 69.824 139.52-0.35224" fill="#0b0af2" stroke="#0000f8" stroke-dasharray="6.78, 6.78" stroke-width=".565"/>
 <g fill="#55a0f2">
  <path d="m37.369 96.494v-26.669l3.9398 1e-3c12.318 0.0042 23.272 2.4159 31.516 6.9378 12.212 6.6988 19.786 17.726 27.396 39.89 0.95175 2.7719 1.8569 5.3706 2.0115 5.7749 0.26622 0.69631-1.4324 0.73498-32.291 0.73498h-32.572z"/>
  <rect x="37.369" y="121.14" width="65.268" height="16.12" ry="0" stroke-width=".26458"/>
  <path d="m176.89 96.343v-26.871l-3.9398 1e-3c-12.318 0.0042-23.272 2.4342-31.516 6.9903-12.212 6.7496-19.786 17.86-27.396 40.192-0.95175 2.7929-1.8569 5.4113-2.0115 5.8186-0.26622 0.70159 1.4324 0.74055 32.291 0.74055h32.572z"/>
  <rect transform="scale(-1,1)" x="-176.89" y="120.79" width="65.268" height="16.12" stroke-width=".26458"/>
 </g>
 <g stroke="#0000f8">
  <rect x="102.64" y="121.14" width="8.9879" height="15.768" fill="#0b0af2" stroke-dasharray="0.1325, 0.1325" stroke-width=".265"/>
  <rect x="102.64" y="58.466" width="8.8898" height="62.676" fill="#ececfd" stroke-width=".265"/>
  <rect x="143.76" y="60.981" width="3.4137" height="16.388" fill="#ececfd" stroke-width=".083969"/>
 </g>
 <g fill="#0b0af2">
  <g stroke="#0000f8">
   <rect x="143.75" y="74.722" width="3.4293" height="38.573" stroke-dasharray="0.0256019, 0.0256019" stroke-width=".25602"/>
   <rect x="104.56" y="39.219" width="5.0461" height="11.018" stroke-dasharray="0.0829902, 0.0829902" stroke-width=".16598"/>
   <rect x="104.56" y="34.246" width="9.1031" height="4.9727" stroke-dasharray="0.0748851, 0.0748851" stroke-width=".14977"/>
  </g>
  <path d="m113.59 30.174v12.759l7.6028-5.6708z" stroke="#000" stroke-width=".34422px"/>
 </g>
 <g fill="#000000" font-family="sans-serif" stroke-width=".26458">
  <text x="93.699516" y="22.878208" font-size="7.0556px" style="line-height:1.05" xml:space="preserve"><tspan x="93.699516" y="22.878208">pumping</tspan><tspan x="93.699516" y="30.286547"> well</tspan></text>
  <text x="145.74805" y="51.873352" font-size="7.0556px" text-align="center" text-anchor="middle" style="line-height:1.05" xml:space="preserve"><tspan x="145.74805" y="51.873352" text-align="center">observation</tspan><tspan x="145.74805" y="59.281689" text-align="center"> point</tspan></text>
  <g text-anchor="middle">
   <text x="52.47646" y="104.82713" font-size="6.35px" font-weight="bold" stroke="#0000a5" text-align="center" style="line-height:1.05" xml:space="preserve"><tspan x="52.47646" y="104.82713" text-align="center">ground</tspan><tspan x="52.47646" y="111.49463" text-align="center">water</tspan><tspan x="52.47646" y="118.16212" text-align="center">table</tspan></text>
   <text x="56.459064" y="83.992638" font-size="5.6444px" stroke="#797987" text-align="center" style="line-height:1.05" xml:space="preserve"><tspan x="56.459064" y="83.992638" font-family="sans-serif" font-size="5.6444px" stroke="#797987" stroke-width=".26458" text-align="center" text-anchor="middle">original</tspan></text>
   <text x="82.547028" y="116.28162" font-size="5.6444px" stroke="#7a7a8a" text-align="center" style="line-height:1.05" xml:space="preserve"><tspan x="82.547028" y="116.28162" text-align="center">during</tspan><tspan x="82.547028" y="122.20827" text-align="center">pumping</tspan></text>
  </g>
 </g>
 <path d="m76.604 72.709-15.873 27.167" fill="none" marker-start="url(#marker1577)" stroke="#8d8282" stroke-miterlimit="4.2" stroke-width=".84076"/>
 <path d="m93.768 104.81-27.591 2.9226" fill="none" marker-start="url(#Arrow1Lstart)" stroke="#877" stroke-miterlimit="4.2" stroke-width=".84076"/>
</svg>
